<svg width="58" height="14" viewBox="0 0 58 14" fill="none" xmlns="http://www.w3.org/2000/svg">
<path d="M4.13999 13.844C2.01599 13.844 0.671994 12.896 0.587994 11.3H3.19199C3.25199 11.66 3.58799 11.852 4.10399 11.852C4.75199 11.852 5.06399 11.528 5.06399 10.844V10.352C4.58399 10.64 3.99599 10.796 3.33599 10.796C1.53599 10.796 0.287994 9.51201 0.287994 7.61601C0.287994 5.72001 1.53599 4.43601 3.33599 4.43601C4.24799 4.43601 5.01599 4.73601 5.56799 5.26401L5.81999 4.60401H7.77599V10.664C7.77599 12.752 6.38399 13.844 4.13999 13.844ZM2.96399 7.62801C2.96399 8.26401 3.39599 8.70801 4.03199 8.70801C4.65599 8.70801 5.08799 8.26401 5.08799 7.62801C5.08799 6.99201 4.65599 6.54801 4.03199 6.54801C3.39599 6.54801 2.96399 6.99201 2.96399 7.62801Z" fill="white"/>
<path d="M9.14493 11V4.60401H11.0889L11.3889 5.38401C11.8089 4.84401 12.3969 4.60401 13.2249 4.60401H14.0409V7.04001H13.2009C12.2649 7.04001 11.8809 7.48401 11.8809 8.40801V11H9.14493Z" fill="white"/>
<path d="M18.2602 11.18C15.9802 11.18 14.4442 9.83601 14.4442 7.80801C14.4442 5.78001 15.9802 4.43601 18.2602 4.43601C20.5522 4.43601 22.0762 5.78001 22.0762 7.80801C22.0762 9.83601 20.5522 11.18 18.2602 11.18ZM17.1082 7.80801C17.1082 8.49201 17.5882 8.96001 18.2602 8.96001C18.9322 8.96001 19.4122 8.49201 19.4122 7.80801C19.4122 7.11201 18.9322 6.64401 18.2602 6.64401C17.5882 6.64401 17.1082 7.11201 17.1082 7.80801Z" fill="white"/>
<path fill-rule="evenodd" clip-rule="evenodd" d="M34.7615 2.12001L34.3807 3.17998L34 4.23995V11H36.736V2.12001H35.368H34.7615Z" fill="white"/>
<path fill-rule="evenodd" clip-rule="evenodd" d="M38.1016 4.60401V11H40.8376V4.60401H38.1016Z" fill="white"/>
<path d="M42.2031 11V4.60401H44.1471L44.4111 5.27601C44.9151 4.73601 45.6471 4.43601 46.5231 4.43601C48.1791 4.43601 49.1991 5.49201 49.1991 7.19601V11H46.4631V7.53201C46.4631 6.94401 46.1991 6.63201 45.7191 6.63201C45.2271 6.63201 44.9391 6.95601 44.9391 7.56801V11H42.2031Z" fill="white"/>
<path d="M50.4648 11V2.12001H53.2008V6.57201H53.3448C53.9088 6.57201 54.1128 6.44001 54.2448 5.99601L54.6768 4.60401H57.5448L56.6688 7.06401C56.5368 7.41201 56.3808 7.71201 56.1888 7.96401L57.8328 11H54.7368L53.7048 8.87601H53.2008V11H50.4648Z" fill="white"/>
<path fill-rule="evenodd" clip-rule="evenodd" d="M28.9198 11L30.0478 7.79601H29.9998L29.5078 6.20001L29.0518 4.60401H26.8198L26.3638 6.20001L25.8598 7.79601H25.8238L25.3198 6.20001L24.8638 4.60401H22.0438L24.3118 11H26.9518L27.9118 7.94001H27.9598L28.9198 11Z" fill="white"/>
<path d="M30.5518 6.20001L30.0478 7.79601L28.9198 11H31.5718L34 4.23995L34.3807 3.17998L34.7615 2.12001C34.7615 2.12001 32.2926 1.93544 31.5 3.50001C31.2065 4.07942 30.5518 6.20001 30.5518 6.20001Z" fill="#7ED348"/>
<path d="M37.8976 2.37201C37.8976 1.48401 38.5216 0.872009 39.4696 0.872009C40.3936 0.872009 41.0296 1.48401 41.0296 2.37201C41.0296 3.27201 40.3936 3.88401 39.4696 3.88401C38.5216 3.88401 37.8976 3.27201 37.8976 2.37201Z" fill="#7ED348"/>
</svg>
