<svg width="58" height="14" viewBox="0 0 58 14" fill="none" xmlns="http://www.w3.org/2000/svg">
<path d="M4.13999 13.844C2.01599 13.844 0.671994 12.896 0.587994 11.3H3.19199C3.25199 11.66 3.58799 11.852 4.10399 11.852C4.75199 11.852 5.06399 11.528 5.06399 10.844V10.352C4.58399 10.64 3.99599 10.796 3.33599 10.796C1.53599 10.796 0.287994 9.512 0.287994 7.616C0.287994 5.72 1.53599 4.436 3.33599 4.436C4.24799 4.436 5.01599 4.736 5.56799 5.264L5.81999 4.604H7.77599V10.664C7.77599 12.752 6.38399 13.844 4.13999 13.844ZM2.96399 7.628C2.96399 8.264 3.39599 8.708 4.03199 8.708C4.65599 8.708 5.08799 8.264 5.08799 7.628C5.08799 6.992 4.65599 6.548 4.03199 6.548C3.39599 6.548 2.96399 6.992 2.96399 7.628Z" fill="#0104AC"/>
<path d="M9.14493 11V4.604H11.0889L11.3889 5.384C11.8089 4.844 12.3969 4.604 13.2249 4.604H14.0409V7.04H13.2009C12.2649 7.04 11.8809 7.484 11.8809 8.408V11H9.14493Z" fill="#0104AC"/>
<path d="M18.2602 11.18C15.9802 11.18 14.4442 9.836 14.4442 7.808C14.4442 5.78 15.9802 4.436 18.2602 4.436C20.5522 4.436 22.0762 5.78 22.0762 7.808C22.0762 9.836 20.5522 11.18 18.2602 11.18ZM17.1082 7.808C17.1082 8.492 17.5882 8.96 18.2602 8.96C18.9322 8.96 19.4122 8.492 19.4122 7.808C19.4122 7.112 18.9322 6.644 18.2602 6.644C17.5882 6.644 17.1082 7.112 17.1082 7.808Z" fill="#0104AC"/>
<path fill-rule="evenodd" clip-rule="evenodd" d="M34.7615 2.12L34.3807 3.17997L34 4.23994V11H36.736V2.12H35.368H34.7615Z" fill="#0104AC"/>
<path fill-rule="evenodd" clip-rule="evenodd" d="M38.1016 4.604V11H40.8376V4.604H38.1016Z" fill="#0104AC"/>
<path d="M42.2031 11V4.604H44.1471L44.4111 5.276C44.9151 4.736 45.6471 4.436 46.5231 4.436C48.1791 4.436 49.1991 5.492 49.1991 7.196V11H46.4631V7.532C46.4631 6.944 46.1991 6.632 45.7191 6.632C45.2271 6.632 44.9391 6.956 44.9391 7.568V11H42.2031Z" fill="#0104AC"/>
<path d="M50.4648 11V2.12H53.2008V6.572H53.3448C53.9088 6.572 54.1128 6.44 54.2448 5.996L54.6768 4.604H57.5448L56.6688 7.064C56.5368 7.412 56.3808 7.712 56.1888 7.964L57.8328 11H54.7368L53.7048 8.876H53.2008V11H50.4648Z" fill="#0104AC"/>
<path fill-rule="evenodd" clip-rule="evenodd" d="M28.9198 11L30.0478 7.796H29.9998L29.5078 6.2L29.0518 4.604H26.8198L26.3638 6.2L25.8598 7.796H25.8238L25.3198 6.2L24.8638 4.604H22.0438L24.3118 11H26.9518L27.9118 7.94H27.9598L28.9198 11Z" fill="#0104AC"/>
<path d="M30.5518 6.2L30.0478 7.796L28.9198 11H31.5718L34 4.23994L34.3807 3.17997L34.7615 2.12C34.7615 2.12 32.2926 1.93543 31.5 3.5C31.2065 4.07941 30.5518 6.2 30.5518 6.2Z" fill="#7ED348"/>
<path d="M37.8976 2.372C37.8976 1.484 38.5216 0.872002 39.4696 0.872002C40.3936 0.872002 41.0296 1.484 41.0296 2.372C41.0296 3.272 40.3936 3.884 39.4696 3.884C38.5216 3.884 37.8976 3.272 37.8976 2.372Z" fill="#7ED348"/>
</svg>
