<svg width="58" height="13" viewBox="0 0 58 13" fill="none" xmlns="http://www.w3.org/2000/svg">
<path d="M3.852 12.972C1.728 12.972 0.384 12.024 0.3 10.428H2.904C2.964 10.788 3.3 10.98 3.816 10.98C4.464 10.98 4.776 10.656 4.776 9.972V9.48C4.296 9.768 3.708 9.924 3.048 9.924C1.248 9.924 0 8.64 0 6.744C0 4.848 1.248 3.564 3.048 3.564C3.96 3.564 4.728 3.864 5.28 4.392L5.532 3.732H7.488V9.792C7.488 11.88 6.096 12.972 3.852 12.972ZM2.676 6.756C2.676 7.392 3.108 7.836 3.744 7.836C4.368 7.836 4.8 7.392 4.8 6.756C4.8 6.12 4.368 5.676 3.744 5.676C3.108 5.676 2.676 6.12 2.676 6.756Z" fill="#3235E9"/>
<path d="M8.85694 10.128V3.732H10.8009L11.1009 4.512C11.5209 3.972 12.1089 3.732 12.9369 3.732H13.7529V6.168H12.9129C11.9769 6.168 11.5929 6.612 11.5929 7.536V10.128H8.85694Z" fill="#3235E9"/>
<path d="M17.9722 10.308C15.6923 10.308 14.1562 8.964 14.1562 6.936C14.1562 4.908 15.6923 3.564 17.9722 3.564C20.2643 3.564 21.7882 4.908 21.7882 6.936C21.7882 8.964 20.2643 10.308 17.9722 10.308ZM16.8202 6.936C16.8202 7.62 17.3003 8.088 17.9722 8.088C18.6443 8.088 19.1243 7.62 19.1243 6.936C19.1243 6.24 18.6443 5.772 17.9722 5.772C17.3003 5.772 16.8202 6.24 16.8202 6.936Z" fill="#3235E9"/>
<path fill-rule="evenodd" clip-rule="evenodd" d="M34.4735 1.248L34.0927 2.30797L33.712 3.36794V10.128H36.448V1.248H35.08H34.4735Z" fill="#3235E9"/>
<path fill-rule="evenodd" clip-rule="evenodd" d="M37.8136 3.732V10.128H40.5496V3.732H37.8136Z" fill="#3235E9"/>
<path d="M41.9151 10.128V3.732H43.8591L44.1231 4.404C44.6271 3.864 45.3591 3.564 46.2351 3.564C47.8911 3.564 48.9111 4.62 48.9111 6.324V10.128H46.1751V6.66C46.1751 6.072 45.9111 5.76 45.4311 5.76C44.9391 5.76 44.6511 6.084 44.6511 6.696V10.128H41.9151Z" fill="#3235E9"/>
<path d="M50.1768 10.128V1.248H52.9128V5.7H53.0569C53.6209 5.7 53.8248 5.568 53.9568 5.124L54.3889 3.732H57.2569L56.3808 6.192C56.2488 6.54 56.0928 6.84 55.9008 7.092L57.5448 10.128H54.4488L53.4169 8.004H52.9128V10.128H50.1768Z" fill="#3235E9"/>
<path fill-rule="evenodd" clip-rule="evenodd" d="M28.6318 10.128L29.7598 6.924H29.7118L29.2198 5.328L28.7638 3.732H26.5318L26.0758 5.328L25.5718 6.924H25.5358L25.0318 5.328L24.5758 3.732H21.7558L24.0238 10.128H26.6638L27.6238 7.068H27.6718L28.6318 10.128Z" fill="#3235E9"/>
<path d="M30.2638 5.328L29.7598 6.924L28.6318 10.128H31.2838L33.712 3.36794L34.0927 2.30797L34.4735 1.248C34.4735 1.248 32.0046 1.06343 31.212 2.628C30.9185 3.20741 30.2638 5.328 30.2638 5.328Z" fill="#95F458"/>
<path d="M37.6096 1.5C37.6096 0.612 38.2336 0 39.1816 0C40.1056 0 40.7416 0.612 40.7416 1.5C40.7416 2.4 40.1056 3.012 39.1816 3.012C38.2336 3.012 37.6096 2.4 37.6096 1.5Z" fill="#95F458"/>
</svg>
